<svg width="15" height="20" viewBox="0 0 15 20" fill="none" xmlns="http://www.w3.org/2000/svg">
<path fill-rule="evenodd" clip-rule="evenodd" d="M13.813 7.12351L8.204 1.46749C7.218 0.473834 5.922 0 4.628 0H2.811C1.261 0 0 0.00148731 0 0.00148731V20H2.811H4.628C5.922 20 7.218 19.5252 8.204 18.5315L13.813 12.8755C14.601 12.0808 15 11.0471 15 10.0065C15 8.96586 14.601 7.91823 13.813 7.12351ZM1 10.0083C1 11.1003 1.88 11.9853 2.965 11.9853C4.05 11.9853 4.93 11.1003 4.93 10.0083C4.93 8.91625 4.05 8.03125 2.965 8.03125C1.88 8.03125 1 8.91625 1 10.0083Z" fill="#FFEC89"/>
</svg>
